<?xml version="1.0" encoding="UTF-8"?>
<svg width="16px" height="19px" viewBox="0 0 16 19" version="1.1" xmlns="http://www.w3.org/2000/svg" xmlns:xlink="http://www.w3.org/1999/xlink">
    <!-- Generator: sketchtool 52.5 (67469) - http://www.bohemiancoding.com/sketch -->
    <title>EFD2771B-B103-49BF-B090-396D4E98E394</title>
    <desc>Created with sketchtool.</desc>
    <g id="Profile-Page" stroke="none" stroke-width="1" fill="none" fill-rule="evenodd">
        <g id="Profile" transform="translate(-17.000000, -361.000000)" fill="#FFFFFF" fill-rule="nonzero">
            <g id="Menu">
                <g id="Menu-Item-Selected-Copy-3" transform="translate(0.000000, 350.000000)">
                    <g id="Icon" transform="translate(16.000000, 11.000000)">
                        <g id="bell-regular" transform="translate(1.000000, 0.000000)">
                            <path d="M15.6583111,12.8814222 C14.9713778,12.1432889 13.6860444,11.0328889 13.6860444,7.39555556 C13.6860444,4.63288889 11.7489778,2.42133333 9.13706667,1.87875556 L9.13706667,1.13777778 C9.13706667,0.509511111 8.62791111,0 8,0 C7.37208889,0 6.86293333,0.509511111 6.86293333,1.13777778 L6.86293333,1.87875556 C4.25102222,2.42133333 2.31395556,4.63288889 2.31395556,7.39555556 C2.31395556,11.0328889 1.02862222,12.1432889 0.341688889,12.8814222 C0.128355556,13.1107556 0.0337777778,13.3848889 0.0355555556,13.6533333 C0.0394666667,14.2364444 0.497066667,14.7911111 1.17688889,14.7911111 L14.8231111,14.7911111 C15.5029333,14.7911111 15.9608889,14.2364444 15.9644444,13.6533333 C15.9662222,13.3848889 15.8716444,13.1104 15.6583111,12.8814222 Z M2.43662222,13.0844444 C3.19111111,12.0899556 4.016,10.4416 4.01991111,7.41617778 C4.01991111,7.40906667 4.01777778,7.40266667 4.01777778,7.39555556 C4.01777778,5.19608889 5.80053333,3.41333333 8,3.41333333 C10.1994667,3.41333333 11.9822222,5.19608889 11.9822222,7.39555556 C11.9822222,7.40266667 11.9800889,7.40906667 11.9800889,7.41617778 C11.984,10.4419556 12.8088889,12.0903111 13.5633778,13.0844444 L2.43662222,13.0844444 Z M8,18.2044444 C9.25582222,18.2044444 10.2744889,17.1857778 10.2744889,15.9288889 L5.72551111,15.9288889 C5.72551111,17.1857778 6.74417778,18.2044444 8,18.2044444 Z" id="Shape"></path>
                        </g>
                    </g>
                </g>
            </g>
        </g>
    </g>
</svg>