<?xml version="1.0" encoding="UTF-8"?>
<svg width="20px" height="15px" viewBox="0 0 20 15" version="1.1" xmlns="http://www.w3.org/2000/svg" xmlns:xlink="http://www.w3.org/1999/xlink">
    <!-- Generator: Sketch 52.5 (67469) - http://www.bohemiancoding.com/sketch -->
    <title>Email</title>
    <desc>Created with Sketch.</desc>
    <g id="Page-1" stroke="none" stroke-width="1" fill="none" fill-rule="evenodd">
        <g id="1.1-Desktop-High-Fidelity-2" transform="translate(-204.000000, -1971.000000)" fill="#FFFFFF" fill-rule="nonzero">
            <g id="Bitmap" transform="translate(0.000000, 1696.000000)">
                <g id="Left-Contact" transform="translate(204.000000, 103.000000)">
                    <g id="Group-5-Copy-2" transform="translate(0.000000, 167.000000)">
                        <path d="M19.6210938,9.953125 C19.7734375,9.83203125 20,9.9453125 20,10.1367188 L20,18.125 C20,19.1601563 19.1601562,20 18.125,20 L1.875,20 C0.83984375,20 0,19.1601563 0,18.125 L0,10.140625 C0,9.9453125 0.22265625,9.8359375 0.37890625,9.95703125 C1.25390625,10.6367188 2.4140625,11.5 6.3984375,14.3945313 C7.22265625,14.9960938 8.61328125,16.2617188 10,16.2539063 C11.3945312,16.265625 12.8125,14.9726563 13.6054688,14.3945313 C17.5898438,11.5 18.7460938,10.6328125 19.6210938,9.953125 Z M10,15 C10.90625,15.015625 12.2109375,13.859375 12.8671875,13.3828125 C18.0507812,9.62109375 18.4453125,9.29296875 19.640625,8.35546875 C19.8671875,8.1796875 20,7.90625 20,7.6171875 L20,6.875 C20,5.83984375 19.1601562,5 18.125,5 L1.875,5 C0.83984375,5 0,5.83984375 0,6.875 L0,7.6171875 C0,7.90625 0.1328125,8.17578125 0.359375,8.35546875 C1.5546875,9.2890625 1.94921875,9.62109375 7.1328125,13.3828125 C7.7890625,13.859375 9.09375,15.015625 10,15 Z" id="Email"></path>
                    </g>
                </g>
            </g>
        </g>
    </g>
</svg>