<?xml version="1.0" encoding="UTF-8"?>
<svg width="18px" height="13px" viewBox="0 0 18 13" version="1.1" xmlns="http://www.w3.org/2000/svg" xmlns:xlink="http://www.w3.org/1999/xlink">
    <!-- Generator: sketchtool 52.5 (67469) - http://www.bohemiancoding.com/sketch -->
    <title>718A386B-229B-4FB2-AC83-744BEF4280BF</title>
    <desc>Created with sketchtool.</desc>
    <g id="Profile-Page" stroke="none" stroke-width="1" fill="none" fill-rule="evenodd">
        <g id="Profile" transform="translate(-16.000000, -314.000000)" fill="#FFFFFF" fill-rule="nonzero">
            <g id="Menu">
                <g id="Menu-Item-Selected-Copy-2" transform="translate(0.000000, 300.000000)">
                    <g id="Icon" transform="translate(16.000000, 11.000000)">
                        <g id="user-regular" transform="translate(1.000000, 4.000000)">
                            <g id="money-bill-wave-alt-solid">
                                <path d="M15.8592833,-0.264031533 C16.4793057,-0.0110638626 16.8744608,0.599506624 16.875,1.26273556 L16.875,8.97702128 C16.875,9.91247439 16.1068281,10.6255167 15.1937626,10.6255167 C15.0199213,10.6255167 14.8460865,10.5993536 14.6770129,10.5472221 C14.0268706,10.3466006 13.3494859,10.2525076 12.6188028,10.2525076 C11.4306433,10.2525076 10.4493651,10.4336899 8.20916699,10.9851941 C5.83056225,11.570772 4.7590392,11.768617 3.38119717,11.768617 C2.23600613,11.768617 1.16781084,11.576789 0.141029953,11.1576349 C-0.4795158,10.9049736 -0.875,10.2936603 -0.875,9.63088146 L-0.875,1.91635258 C-0.875,0.980899465 -0.10682809,0.267857143 0.806237403,0.267857143 C0.980078747,0.267857143 1.1539135,0.294020235 1.32298708,0.346151711 C1.97312945,0.546773223 2.65051406,0.640866261 3.38119717,0.640866261 C4.56925835,0.640866261 5.55042264,0.459713991 7.79034548,-0.0917005923 C10.1689931,-0.67726584 11.2407301,-0.875108808 12.6185528,-0.875 C13.763546,-0.875 14.8317384,-0.68323943 15.8592833,-0.264031533 Z M12.6184837,0.874999997 C11.4303191,0.874906169 10.4488786,1.05608037 8.20903418,1.60747565 C5.83034169,2.19305196 4.7589318,2.39086626 3.38119717,2.39086626 C2.50653015,2.39086626 1.67796478,2.27910373 0.874999999,2.03901142 L0.875,9.56653132 C1.66078265,9.87600249 2.48208568,10.018617 3.38119717,10.018617 C4.56935671,10.018617 5.55063492,9.83743471 7.79083301,9.28593052 C10.1694378,8.70035264 11.2409608,8.5025076 12.6188028,8.5025076 C13.4934698,8.5025076 14.3220352,8.61427013 15.125,8.85436244 L15.1250003,1.32696081 C14.3390434,1.01759504 13.5176048,0.875 12.6184837,0.874999997 Z M7.999875,6.90615502 C8.58847853,6.90615502 9.12484375,6.28023119 9.12484375,5.44680851 C9.12484375,4.61341933 8.58853472,3.98746201 7.999875,3.98746201 C7.41121529,3.98746201 6.87490625,4.61341933 6.87490625,5.44680851 C6.87490625,6.28016421 7.41115908,6.90615502 7.999875,6.90615502 Z M7.999875,8.65615502 C6.37938446,8.65615502 5.12490625,7.19174908 5.12490625,5.44680851 C5.12490625,3.70178463 6.37951167,2.23746201 7.999875,2.23746201 C9.62023833,2.23746201 10.8748438,3.70178463 10.8748438,5.44680851 C10.8748438,7.19191574 9.62011114,8.65615502 7.999875,8.65615502 Z" id="Shape"></path>
                            </g>
                        </g>
                    </g>
                </g>
            </g>
        </g>
    </g>
</svg>