<?xml version="1.0" encoding="UTF-8"?>
<svg width="20px" height="20px" viewBox="0 0 20 20" version="1.1" xmlns="http://www.w3.org/2000/svg" xmlns:xlink="http://www.w3.org/1999/xlink">
    <!-- Generator: Sketch 52.5 (67469) - http://www.bohemiancoding.com/sketch -->
    <title>Phone</title>
    <desc>Created with Sketch.</desc>
    <g id="Page-1" stroke="none" stroke-width="1" fill="none" fill-rule="evenodd">
        <g id="1.1-Desktop-High-Fidelity-2" transform="translate(-204.000000, -1919.000000)" fill="#FFFFFF">
            <g id="Bitmap" transform="translate(0.000000, 1696.000000)">
                <g id="Left-Contact" transform="translate(204.000000, 103.000000)">
                    <g id="Group-5-Copy" transform="translate(0.000000, 120.000000)">
                        <path d="M19.2734523,0.961340359 L15.2110349,0.0238594304 C14.7696377,-0.0777010035 14.3165219,0.152763058 14.136838,0.566817135 L12.2618762,4.94172813 C12.097817,5.32453285 12.2071898,5.77374246 12.5314019,6.03545588 L14.8985413,7.97291647 C13.4923199,10.9689493 11.0353386,13.4610861 7.97680709,14.8946507 L6.03934651,12.5275113 C5.77372691,12.2032992 5.32842347,12.0939264 4.94561876,12.2579855 L0.570707757,14.1329474 C0.15274751,14.3165374 -0.077716552,14.7696532 0.0238438819,15.2110505 L0.96132481,19.2734678 C1.05897907,19.6953342 1.43397145,20.0000155 1.87536872,20.0000155 C11.8790715,20.0000155 20,11.8947117 20,1.87538426 C20,1.43789316 19.6992249,1.05899462 19.2734523,0.961340359 Z" id="Phone"></path>
                    </g>
                </g>
            </g>
        </g>
    </g>
</svg>