<?xml version="1.0" encoding="UTF-8"?>
<svg width="16px" height="19px" viewBox="0 0 16 19" version="1.1" xmlns="http://www.w3.org/2000/svg" xmlns:xlink="http://www.w3.org/1999/xlink">
    <!-- Generator: sketchtool 52.5 (67469) - http://www.bohemiancoding.com/sketch -->
    <title>6938ADD9-CA0B-4FC0-A783-AD15B7CA22AA</title>
    <desc>Created with sketchtool.</desc>
    <g id="Profile-Page" stroke="none" stroke-width="1" fill="none" fill-rule="evenodd">
        <g id="Profile" transform="translate(-17.000000, -211.000000)" fill="#FFFFFF" fill-rule="nonzero">
            <g id="Menu">
                <g id="Menu-Item-Selected" transform="translate(0.000000, 200.000000)">
                    <g id="Icon" transform="translate(16.000000, 11.000000)">
                        <g id="user-regular" transform="translate(1.000000, -0.000000)">
                            <path d="M11.2,10.8571429 C10.175,10.8571429 9.68214286,11.4285714 8,11.4285714 C6.31785714,11.4285714 5.82857143,10.8571429 4.8,10.8571429 C2.15,10.8571429 0,13.0071429 0,15.6571429 L0,16.5714286 C0,17.5178571 0.767857143,18.2857143 1.71428571,18.2857143 L14.2857143,18.2857143 C15.2321429,18.2857143 16,17.5178571 16,16.5714286 L16,15.6571429 C16,13.0071429 13.85,10.8571429 11.2,10.8571429 Z M14.2857143,16.5714286 L1.71428571,16.5714286 L1.71428571,15.6571429 C1.71428571,13.9571429 3.1,12.5714286 4.8,12.5714286 C5.32142857,12.5714286 6.16785714,13.1428571 8,13.1428571 C9.84642857,13.1428571 10.675,12.5714286 11.2,12.5714286 C12.9,12.5714286 14.2857143,13.9571429 14.2857143,15.6571429 L14.2857143,16.5714286 Z M8,10.2857143 C10.8392857,10.2857143 13.1428571,7.98214286 13.1428571,5.14285714 C13.1428571,2.30357143 10.8392857,0 8,0 C5.16071429,0 2.85714286,2.30357143 2.85714286,5.14285714 C2.85714286,7.98214286 5.16071429,10.2857143 8,10.2857143 Z M8,1.71428571 C9.88928571,1.71428571 11.4285714,3.25357143 11.4285714,5.14285714 C11.4285714,7.03214286 9.88928571,8.57142857 8,8.57142857 C6.11071429,8.57142857 4.57142857,7.03214286 4.57142857,5.14285714 C4.57142857,3.25357143 6.11071429,1.71428571 8,1.71428571 Z" id="Shape"></path>
                        </g>
                    </g>
                </g>
            </g>
        </g>
    </g>
</svg>