<?xml version="1.0" encoding="UTF-8"?>
<svg width="18px" height="18px" viewBox="0 0 18 18" version="1.1" xmlns="http://www.w3.org/2000/svg" xmlns:xlink="http://www.w3.org/1999/xlink">
    <!-- Generator: sketchtool 52.5 (67469) - http://www.bohemiancoding.com/sketch -->
    <title>B6480DA0-3356-488B-B7E2-98D083B0F4B3</title>
    <desc>Created with sketchtool.</desc>
    <g id="Profile-Page" stroke="none" stroke-width="1" fill="none" fill-rule="evenodd">
        <g id="Profile" transform="translate(-16.000000, -262.000000)" fill="#FFFFFF">
            <g id="Menu">
                <g id="Menu-Item-Selected-Copy" transform="translate(0.000000, 250.000000)">
                    <g id="Icon" transform="translate(15.000000, 11.000000)">
                        <path d="M14.9985009,5.30879391 C14.9176701,5.32121448 14.8355779,5.32601775 14.7553779,5.34115532 C14.6721698,5.3568751 14.6357814,5.32368889 14.6518408,5.24513849 C14.7802676,4.6174145 14.8084079,3.94791664 15.3275975,3.47287834 C15.7791531,3.05979734 16.3422513,2.91550524 16.931161,2.84170959 C17.1310546,2.81667437 17.1928178,2.90735424 17.1586127,3.09244985 C16.9220882,4.58505309 16.5410775,5.07120198 14.9985009,5.30879391 Z M16.0800123,8.61276269 C15.3556893,9.27066478 14.2959623,9.17911159 13.6669284,8.45158638 C13.6467935,8.42829781 13.6238445,8.40743513 13.6021085,8.38555358 C13.1453614,7.92555581 13.1477388,7.88140457 13.6856077,7.48753663 C14.0160628,7.24552958 14.3784427,7.08736138 14.800548,7.09861752 C15.348169,7.12103277 15.7682851,7.39219905 16.137506,7.77398604 C16.5693149,8.22054436 16.5469481,8.18861961 16.0800123,8.61276269 Z M13.6745457,11.0448171 C12.8321787,12.022937 11.691524,12.0329802 10.9159661,11.1998802 C10.4481569,10.6974293 10.4342323,10.7103836 10.9540526,10.2473777 C11.2529711,9.9811117 11.5737711,9.86869584 12.0558445,9.87068507 C12.8131112,9.824302 13.242106,10.3839554 13.7176295,10.8621474 C13.7901152,10.9350212 13.7214624,10.9903316 13.6745457,11.0448171 Z M10.6329129,14.0830051 C10.2941613,14.3723171 9.90902656,14.5409166 9.44970804,14.5665825 C9.04070254,14.513504 8.63072668,14.434614 8.32356015,14.1007141 C8.25417962,14.0253174 8.17854029,13.9556942 8.10586054,13.8833056 C7.63960397,13.4188442 7.64173876,13.3941486 8.18227616,12.9883453 C8.9557963,12.4077321 9.7901093,12.4648377 10.5195267,13.1488423 C10.571829,13.1979909 10.6213172,13.2501476 10.6719698,13.3010429 C11.077288,13.7078651 11.0751046,13.7052936 10.6329129,14.0830051 Z M8.92023271,6.36192243 C8.99679388,6.28788419 9.07869202,6.25843385 9.16029905,6.34537785 C9.46004235,6.66467384 9.82465401,6.92550582 10.0065474,7.34921223 C10.3167221,8.0717401 9.99407836,9.10648036 9.33641886,9.46890873 C9.27009495,9.50549119 9.22060674,9.50539415 9.17296221,9.45580891 C8.82741806,9.09619458 8.41346373,8.79198764 8.26169989,8.27828061 C8.21386128,8.11623098 8.21187205,7.95587947 8.20527362,7.79382984 C8.15753206,7.17314094 8.5136531,6.7550626 8.92023271,6.36192243 Z M11.741934,3.53828041 C11.7970988,3.48753073 11.8331476,3.48947145 11.8982585,3.5317305 C12.4413189,3.88406715 12.8848206,4.632358 12.8951549,5.14786019 C12.8671116,5.85995672 12.5459719,6.32999769 12.0838393,6.72459339 C12.0239683,6.77573121 11.9783615,6.7759738 11.9276604,6.71979012 C11.6008441,6.35760435 11.1881512,6.07299862 11.0199398,5.57379843 C10.71321,4.66331239 11.2115854,4.02622446 11.741934,3.53828041 Z M6.58482584,12.222685 C6.54183902,12.2604319 6.50710024,12.2616449 6.45111064,12.232049 C5.86351091,11.9216318 5.37721647,11.0439438 5.44121152,10.3660524 C5.49395042,9.80727224 5.83779645,9.41330727 6.23176142,9.0549544 C6.29716349,8.995423 6.37265727,9.0016818 6.42059291,9.06815126 C6.63159705,9.36071391 6.95841331,9.54542138 7.14845774,9.85666341 C7.31322437,10.1264712 7.36290665,10.4291256 7.39366697,10.6384801 C7.3980821,11.3780377 7.03715779,11.8254209 6.58482584,12.222685 Z M17.2369205,6.53042494 C17.1146555,6.41087695 17.0758413,6.33455837 17.2655946,6.24353887 C17.6516997,6.05824919 17.8924453,5.72202047 18.1177622,5.37545744 C18.7304456,4.43299814 18.848247,3.36628462 18.8886138,2.28103727 C18.8886138,2.18846521 18.8892931,2.09589314 18.8885168,2.00332108 C18.8825976,1.30505214 18.6900788,1.12039319 17.9794863,1.1119996 C17.4441403,1.10569228 16.9118509,1.13145526 16.3863541,1.2380975 C15.3347296,1.45152753 14.3753861,1.82991827 13.7436836,2.76689506 C13.6290359,2.93695013 13.5582484,2.85112205 13.4639782,2.7558815 C13.0658892,2.35386257 12.6688191,1.95067921 12.2631613,1.55642313 C11.9649706,1.26657748 11.6681869,1.27176889 11.3716458,1.55729645 C11.216049,1.70711959 11.0689914,1.86587 10.9121332,2.01428612 C10.2990131,2.59465668 9.67618938,3.16682772 9.43612304,4.0217123 C9.41016599,4.11404177 9.34165878,4.16309332 9.24704897,4.12447311 C8.9520119,4.00419735 8.75871678,4.16197741 8.57143786,4.35546661 C8.3568434,4.5771932 8.14229745,4.79955052 7.91746572,5.01074874 C7.38799038,5.50810525 6.90353962,6.03428137 6.70743045,6.76136992 C6.67414721,6.88479934 6.60850255,6.90706903 6.47837767,6.86980732 C6.2276374,6.79804942 6.02211578,6.8969288 5.84274527,7.08275218 C5.46406343,7.47492199 5.06752701,7.85001351 4.69369695,8.24664697 C3.87956737,9.11041031 3.60840109,10.1292852 3.85671546,11.2887164 C4.02618833,12.0798485 4.49312415,12.6832165 5.08334383,13.2004168 C5.30026715,13.3904613 5.31739396,13.5073893 5.09532774,13.7251859 C3.89092055,14.9064016 2.70441645,16.1059085 1.51388536,17.3011458 C1.41301675,17.4024511 1.31248775,17.5100151 1.2381584,17.6308246 C1.01580108,17.9922341 1.09173152,18.4086143 1.41573374,18.6819154 C1.79805443,19.0044621 2.24029466,18.9687529 2.64425431,18.5465021 C3.84570191,17.2906659 5.10571056,16.0937305 6.32923379,14.8603096 C6.46343417,14.7250419 6.54610859,14.6897694 6.69035217,14.8501209 C6.86807307,15.0476856 7.0787861,15.2155088 7.27431305,15.3971597 C8.35073015,16.3972097 10.2005703,16.5023479 11.3774194,15.6219429 C11.9817093,15.1698535 12.460629,14.5848253 12.9937432,14.0574362 C13.0705954,13.9814087 13.1763158,13.8694295 13.1397334,13.7629813 C12.9728805,13.2775117 13.3751905,13.259269 13.6398554,13.1253597 C13.7311175,13.0791707 13.8264066,13.0399683 13.9143694,12.9882483 C14.6548489,12.552849 15.1582701,11.8588497 15.7672662,11.2800317 C15.8214607,11.2285057 15.8756066,11.1240953 15.860469,11.0608765 C15.7563012,10.6263992 16.0307182,10.4967594 16.3614644,10.3942412 C16.4577723,10.3644027 16.5451045,10.3031732 16.6341347,10.2520354 C17.3798541,9.82367127 17.8990922,9.14500354 18.4916407,8.5500291 C18.7472813,8.29332114 18.705556,8.0048825 18.4373493,7.73031997 C18.0419773,7.32563256 17.6413654,6.92603952 17.2369205,6.53042494 Z" id="Stroke-1"></path>
                    </g>
                </g>
            </g>
        </g>
    </g>
</svg>